<svg viewBox="0 0 375 71" xmlns="http://www.w3.org/2000/svg" fill-rule="evenodd" clip-rule="evenodd" stroke-linejoin="round" stroke-miterlimit="1.414"><path d="M37.284 11.854c.721-.076.654-.853 1.289-.91.883-.08.884.806.987 1.821a5.99 5.99 0 0 1 1.289-.075c.585.478.889 1.234.835 2.351.784.532 1.339 1.291 1.291 2.655.69.456.913.748 1.214 1.897.285 1.092.746 2.561.758 4.022.005.681-.224 1.385.152 1.897.021.324-.232.375-.152.758.214.417.646.619.911.987 2.396-.667 4.483-2.101 6.221-3.642 1.785-1.583 3.262-3.383 4.173-5.767.11-.547.213-1.101.834-1.137-.165.903-.697 1.687-.834 2.654.783.076.407-1.007 1.215-.91.037-.239-.137-.268-.077-.531.693-.547.641-1.836 1.594-2.124-.155.654-.439 1.18-.381 2.048.578-.409.623-1.351 1.139-1.821.479.28.254 1.264 1.063 1.215.199.831.067 1.497-.076 2.275.038.24.434.124.53.304.262.728-.079 1.479-.228 2.049.009.345.4.309.456.607-.158.676-.482 1.188-.758 1.745.328.75-.251 1.521-.683 1.972.404.918-.08 1.968-.91 2.125-.147.815-.484 1.44-1.062 1.822-.345 1.146-1.255 1.729-2.05 2.427-.23 1.136-1.284 1.446-1.82 2.277-.347.067-.431-.127-.684-.153-.178.126-.164.443-.151.759-.539.043-.894.269-1.062.683-.599.068-.929-.134-1.291-.304-.113.277.003.444-.151.76-1.181.355-2.013.294-2.883-.304-.722.644-2.248.483-3.415.682.994 1.611 2.141 3.07 2.883 4.933.988 1.43 3.665 2.065 4.857 3.566.208.26.292.6.456.834.304.435.944.842.378 1.517.082.373.428.484.532.835-.039.341-.507.251-.683.455-.065.342.356.199.227.608-.285.171-.817.321-1.214.151-.174.23-.027.782-.077 1.138-.78-.179-1.173-.748-1.972-.911-2.191-1.349-3.215-3.865-4.779-5.842-1.032-.126-2.379-.642-3.566-.303a.655.655 0 0 0-.152.076c-.44.349-.966.788-1.365.986.129.552.666.699.606 1.441-1.334-.462-1.817-1.774-2.808-2.579.212-.7.41-1.411 1.442-1.29.27-.575-.317-.807-.455-1.214-1.943-.611-3.414-1.695-4.78-2.884-1.109-1.631-2.855-2.875-3.566-4.931-.343-.989-.597-1.939-1.138-2.883-.679-1.164-2.256-2.312-4.097-1.593-.256-.086.374-.515.303-.911.422-.613 1.048-1.025 1.442-1.669 2.913-1.773 5.191.848 6.828 2.125.867-2.605-2.511-4.045-.834-6.526-.215-2.916-.285-6.812-.607-9.712-.075-.676 0-1.236.379-1.592 1.237.154 1.399 1.382 1.897 2.275.976-.591.436-2.7 1.746-2.959.485.374.763.957.834 1.745z" fill="#822920"/><path d="M42.258 59.852c-16.135 0-29.215-13.079-29.215-29.214 0-16.136 13.08-29.216 29.215-29.216 1.112 0 2.21.065 3.29.187A35.013 35.013 0 0 0 35.029 0C15.683 0 0 15.683 0 35.03c0 19.345 15.683 35.03 35.029 35.03 17.263 0 31.609-12.49 34.497-28.925-4.217 10.948-14.835 18.717-27.268 18.717zM87.081 21.112c-.771 1.033-2.036 1.461-3.215 1.461-2.991 0-4.774-2.397-4.774-4.959 0-2.865 1.6-5.344 4.774-5.344 2.19 0 3.931.963 4.311 3.264h-1.335c-.267-1.487-1.487-2.163-2.976-2.163-2.43 0-3.441 2.067-3.441 4.174 0 2.052 1.209 3.925 3.441 3.925 2.063 0 3.3-1.418 3.215-3.209H83.88v-1.102h4.394v5.18h-.841l-.352-1.227zM100.964 12.503h1.335v8.734h5.307v1.102h-6.642v-9.836zM123.734 21.47c2.444 0 3.468-2.066 3.468-4.049 0-1.983-1.024-4.05-3.468-4.05-2.443 0-3.468 2.067-3.468 4.05 0 1.983 1.025 4.049 3.468 4.049zm0-9.2c3.187 0 4.803 2.479 4.803 5.151 0 2.673-1.616 5.152-4.803 5.152-3.188 0-4.803-2.479-4.803-5.152 0-2.672 1.615-5.151 4.803-5.151zM142.223 21.237h3.342c1.151 0 1.881-.69 1.881-1.764 0-1.281-1.053-1.639-2.176-1.639h-3.047v3.403zm0-4.505h2.668c1.516 0 2.135-.537 2.135-1.57 0-1.364-.983-1.556-2.135-1.556h-2.668v3.126zm-1.334-4.229h3.636c.885 0 2.051 0 2.655.358.659.387 1.179 1.088 1.179 2.053 0 1.047-.562 1.832-1.489 2.204v.028c1.236.247 1.911 1.156 1.911 2.37 0 1.445-1.054 2.823-3.047 2.823h-4.845v-9.836zM162.958 18.275h3.398l-1.671-4.588h-.028l-1.699 4.588zm.997-5.772h1.473l3.919 9.836h-1.475l-1.095-2.962h-4.242l-1.122 2.962h-1.376l3.918-9.836zM181.051 12.503h1.335v8.734h5.307v1.102h-6.642v-9.836zM214.262 12.503h1.333v9.836h-1.333zM228.548 12.503h1.418l5.28 7.976h.028v-7.976h1.264v9.836h-1.46l-5.238-7.893h-.028v7.893h-1.264v-9.836zM249.48 12.503h1.333v9.836h-1.333zM266.054 13.606h-3.342v-1.103h8.019v1.103h-3.342v8.733h-1.335v-8.733zM282.619 12.503h1.333v9.836h-1.333zM298.644 18.275h3.399l-1.671-4.588h-.028l-1.7 4.588zm.998-5.772h1.475l3.917 9.836h-1.475l-1.095-2.962h-4.241l-1.123 2.962h-1.376l3.918-9.836zM317.725 13.606h-3.342v-1.103h8.018v1.103h-3.343v8.733h-1.333v-8.733zM334.288 12.503h1.335v9.836h-1.335zM352.534 22.339h-1.516l-3.538-9.836h1.446l2.865 8.528h.027l2.894-8.528h1.39l-3.568 9.836zM367.89 12.503h6.922v1.103h-5.589v3.126h5.211v1.102h-5.211v3.403h5.632v1.102h-6.965v-9.836zM86.052 38.109a2.782 2.782 0 0 0 1.081-.42c.309-.206.556-.486.741-.836.186-.35.278-.804.278-1.362 0-.773-.206-1.401-.617-1.887-.412-.487-1.078-.73-1.999-.73h-4.861v5.341h4.079c.453 0 .885-.036 1.298-.106zm-.413-6.952c1.401 0 2.497.358 3.285 1.073.79.715 1.185 1.694 1.185 2.94 0 .929-.203 1.744-.608 2.444-.405.701-1.054 1.181-1.946 1.439v.042c.425.085.772.228 1.04.43.268.2.481.438.639.718.157.28.274.59.35.933.075.343.134.701.174 1.072.028.373.049.751.063 1.138.014.386.047.765.102 1.137.056.373.134.726.237 1.062.103.336.258.632.463.89h-2.182c-.138-.158-.23-.371-.278-.642a6.762 6.762 0 0 1-.094-.913c-.012-.336-.027-.696-.04-1.083a7.894 7.894 0 0 0-.124-1.137 11.785 11.785 0 0 0-.206-1.063 2.527 2.527 0 0 0-.391-.879 1.954 1.954 0 0 0-.701-.601c-.288-.15-.673-.225-1.153-.225h-4.779v6.543h-1.956V31.157h6.92zM103.209 31.157v1.717h-8.198v4.869h7.642v1.717h-7.642v5.298h8.259v1.717H93.055V31.157h10.154zM113.383 40.147l-2.45-7.145h-.043l-2.491 7.145h4.984zm-1.36-8.99l5.747 15.318h-2.163l-1.605-4.613h-6.221l-1.647 4.613h-1.999l5.726-15.318h2.162zM128.326 33.325c-.748-.545-1.636-.816-2.667-.816-.879 0-1.631.171-2.256.515a4.505 4.505 0 0 0-1.545 1.384 6.094 6.094 0 0 0-.895 1.984 9.18 9.18 0 0 0-.289 2.316c0 .874.096 1.699.289 2.479.192.779.491 1.459.895 2.039.406.578.924 1.04 1.555 1.382.633.344 1.388.516 2.266.516.647 0 1.22-.112 1.721-.332a3.91 3.91 0 0 0 1.298-.924 4.26 4.26 0 0 0 .854-1.405 6.036 6.036 0 0 0 .371-1.759h1.957c-.193 1.931-.832 3.432-1.916 4.506-1.084 1.072-2.568 1.609-4.449 1.609-1.14 0-2.136-.204-2.987-.611a5.923 5.923 0 0 1-2.122-1.685c-.562-.715-.986-1.559-1.266-2.532a11.205 11.205 0 0 1-.422-3.132c0-1.116.15-2.163.453-3.143.302-.979.744-1.834 1.329-2.564a6.232 6.232 0 0 1 2.182-1.727c.873-.422 1.871-.632 2.997-.632.77 0 1.498.106 2.184.32.686.216 1.298.53 1.833.944.536.416.982.934 1.34 1.556.355.623.589 1.342.7 2.157h-1.957c-.219-1.087-.704-1.902-1.453-2.445zM136.492 31.157v6.586h7.745v-6.586h1.957v15.318h-1.957V39.46h-7.745v7.015h-1.956V31.157h1.956zM149.716 31.157h1.956v15.318h-1.956zM157.254 31.157l7.745 12.422h.04V31.157h1.854v15.318h-2.142l-7.683-12.293h-.041v12.293h-1.853V31.157h2.08zM179.147 46.293a6.718 6.718 0 0 1-2.574.526c-1.1 0-2.08-.211-2.945-.633a6.688 6.688 0 0 1-2.204-1.706 7.553 7.553 0 0 1-1.381-2.467 8.972 8.972 0 0 1-.473-2.898c0-1.114.148-2.177.443-3.184.294-1.009.734-1.892 1.317-2.649a6.455 6.455 0 0 1 2.184-1.813c.871-.452 1.892-.676 3.059-.676a8.54 8.54 0 0 1 2.256.289 5.614 5.614 0 0 1 1.894.912 5.33 5.33 0 0 1 1.4 1.576c.378.637.636 1.406.773 2.307h-1.956c-.098-.587-.276-1.09-.536-1.512a3.514 3.514 0 0 0-.969-1.04 4.167 4.167 0 0 0-1.307-.611 5.683 5.683 0 0 0-1.555-.205c-.893 0-1.658.186-2.297.558a4.69 4.69 0 0 0-1.566 1.47 6.565 6.565 0 0 0-.895 2.079 9.929 9.929 0 0 0-.288 2.394c0 .8.109 1.569.329 2.305.219.738.542 1.389.968 1.953a4.8 4.8 0 0 0 1.575 1.351c.625.337 1.35.505 2.174.505.769 0 1.448-.129 2.039-.386a4.281 4.281 0 0 0 1.493-1.063 4.51 4.51 0 0 0 .918-1.587 5.42 5.42 0 0 0 .266-1.964h-4.696v-1.716h6.447v8.067h-1.235l-.516-1.91c-.577.803-1.291 1.378-2.142 1.728zM196.469 31.157l3.439 10.534h.042l3.255-10.534h4.551v15.318h-3.027V35.62h-.043l-3.603 10.855h-2.493l-3.605-10.748h-.04v10.748h-3.027V31.157h4.551zM221.638 45.307c-1.112 1.006-2.65 1.512-4.613 1.512-1.992 0-3.532-.502-4.624-1.502-1.093-1.001-1.637-2.547-1.637-4.635v-9.525h3.232v9.525c0 .415.034.823.104 1.223.069.4.213.756.432 1.063.219.308.526.557.917.75.392.194.918.29 1.576.29 1.153 0 1.95-.268 2.389-.805.44-.537.659-1.376.659-2.521v-9.525h3.234v9.525c0 2.075-.556 3.616-1.669 4.625zM228.786 42.7c.179.357.415.646.711.868.294.222.642.386 1.04.494.397.108.809.162 1.235.162.289 0 .598-.027.926-.077.331-.05.64-.146.928-.289.288-.144.53-.339.721-.59.192-.25.288-.568.288-.955 0-.414-.126-.75-.38-1.008-.255-.258-.588-.472-.999-.643a9.689 9.689 0 0 0-1.4-.452 35.599 35.599 0 0 1-1.587-.429 13.888 13.888 0 0 1-1.606-.525 5.393 5.393 0 0 1-1.401-.806 3.746 3.746 0 0 1-.999-1.233c-.254-.493-.381-1.089-.381-1.79 0-.787.16-1.47.483-2.05a4.508 4.508 0 0 1 1.268-1.447 5.401 5.401 0 0 1 1.771-.859 7.28 7.28 0 0 1 1.977-.278 9.03 9.03 0 0 1 2.214.267c.707.18 1.336.469 1.884.87.55.4.986.911 1.309 1.534.323.622.484 1.377.484 2.263h-3.13c-.029-.457-.121-.836-.279-1.137a1.852 1.852 0 0 0-.629-.708 2.58 2.58 0 0 0-.895-.365 5.347 5.347 0 0 0-1.103-.107c-.26 0-.521.028-.783.086-.26.058-.497.158-.709.301a1.821 1.821 0 0 0-.525.535c-.138.216-.207.486-.207.816 0 .3.055.544.166.729.11.186.325.357.648.515.322.158.769.314 1.339.472.569.158 1.316.357 2.234.6.276.057.655.161 1.144.312.488.149.971.389 1.452.717.481.331.895.77 1.246 1.321.35.551.524 1.254.524 2.113 0 .7-.13 1.351-.39 1.952a4.202 4.202 0 0 1-1.165 1.555c-.514.437-1.153.777-1.914 1.02-.763.242-1.645.365-2.647.365a8.921 8.921 0 0 1-2.359-.312 5.785 5.785 0 0 1-2.018-.976 4.775 4.775 0 0 1-1.39-1.694c-.343-.688-.508-1.503-.494-2.447h3.131c0 .515.089.952.267 1.31zM243.14 31.157v12.487h7.168v2.831h-10.402V31.157h3.234zM252.347 31.157h3.234v15.318h-3.234zM263.202 31.157l3.439 10.534h.042l3.255-10.534h4.55v15.318h-3.027V35.62h-.042l-3.604 10.855h-2.492l-3.605-10.748h-.04v10.748h-3.028V31.157h4.552zM289.483 38.493c1.113.015 1.925-.22 2.441-.707.515-.486.771-1.186.771-2.101 0-.917-.256-1.613-.771-2.093-.516-.479-1.328-.718-2.441-.718h-3.832v5.619h3.832zm.658-7.336c1.484 0 2.606.397 3.369 1.191.762.794 1.144 1.906 1.144 3.337 0 1.429-.382 2.544-1.144 3.345-.763.801-1.885 1.195-3.369 1.18h-4.49v6.265h-1.955V31.157h6.445zM307.423 31.157v1.717h-8.198v4.869h7.642v1.717h-7.642v5.298h8.26v1.717h-10.216V31.157h10.154zM311.501 41.1a6.33 6.33 0 0 0 .907 2.029c.411.6.941 1.083 1.586 1.448.645.364 1.413.547 2.306.547s1.662-.183 2.308-.547a4.708 4.708 0 0 0 1.585-1.448 6.307 6.307 0 0 0 .906-2.029 9.184 9.184 0 0 0 0-4.569 6.306 6.306 0 0 0-.906-2.027 4.711 4.711 0 0 0-1.585-1.449c-.646-.364-1.415-.546-2.308-.546-.893 0-1.661.182-2.306.546a4.705 4.705 0 0 0-1.586 1.449 6.33 6.33 0 0 0-.907 2.027 9.24 9.24 0 0 0-.289 2.285c0 .771.098 1.534.289 2.284zm-1.803-5.298a7.733 7.733 0 0 1 1.33-2.564 6.518 6.518 0 0 1 2.203-1.78c.879-.443 1.902-.665 3.069-.665 1.168 0 2.19.222 3.069.665a6.526 6.526 0 0 1 2.205 1.78 7.783 7.783 0 0 1 1.327 2.564c.295.964.443 1.97.443 3.014 0 1.044-.148 2.048-.443 3.014a7.763 7.763 0 0 1-1.327 2.564 6.405 6.405 0 0 1-2.205 1.77c-.879.436-1.901.655-3.069.655-1.167 0-2.19-.219-3.069-.655a6.398 6.398 0 0 1-2.203-1.77 7.713 7.713 0 0 1-1.33-2.564 10.291 10.291 0 0 1-.442-3.014c0-1.044.148-2.05.442-3.014zM331.747 38.493c1.113.015 1.925-.22 2.441-.707.515-.486.771-1.186.771-2.101 0-.917-.256-1.613-.771-2.093-.516-.479-1.328-.718-2.441-.718h-3.832v5.619h3.832zm.658-7.336c1.484 0 2.606.397 3.37 1.191.761.794 1.143 1.906 1.143 3.337 0 1.429-.382 2.544-1.143 3.345-.764.801-1.886 1.195-3.37 1.18h-4.49v6.265h-1.955V31.157h6.445zM341.489 31.157v13.601h7.786v1.717h-9.742V31.157h1.956zM361.366 31.157v1.717h-8.198v4.869h7.643v1.717h-7.643v5.298h8.26v1.717h-10.216V31.157h10.154zM371.385 33.248c-.651-.492-1.486-.739-2.502-.739-.411 0-.817.043-1.215.128a3.16 3.16 0 0 0-1.06.43c-.31.2-.558.468-.742.805-.186.335-.279.753-.279 1.254 0 .472.135.855.402 1.147.268.293.625.533 1.072.719.444.186.95.34 1.513.461a62.21 62.21 0 0 1 1.72.398c.584.142 1.156.31 1.72.503a5.596 5.596 0 0 1 1.514.784c.445.329.803.744 1.07 1.244.268.501.402 1.131.402 1.888 0 .816-.175 1.513-.525 2.093-.349.578-.8 1.05-1.348 1.416a5.765 5.765 0 0 1-1.844.793 8.681 8.681 0 0 1-2.029.247 8.31 8.31 0 0 1-2.337-.322 5.71 5.71 0 0 1-1.937-.976 4.602 4.602 0 0 1-1.319-1.674c-.323-.679-.484-1.484-.484-2.414h1.854c0 .645.122 1.198.361 1.663.239.465.556.847.948 1.148.39.3.847.522 1.369.665a6.051 6.051 0 0 0 1.607.215c.438 0 .882-.044 1.328-.129a3.83 3.83 0 0 0 1.205-.44c.356-.207.646-.489.866-.848.218-.357.328-.814.328-1.373 0-.528-.133-.958-.401-1.287a2.961 2.961 0 0 0-1.071-.804 7.593 7.593 0 0 0-1.514-.504c-.563-.129-1.137-.261-1.72-.397a22.502 22.502 0 0 1-1.721-.472 6.146 6.146 0 0 1-1.513-.709 3.323 3.323 0 0 1-1.071-1.137c-.268-.465-.401-1.046-.401-1.748 0-.772.151-1.441.452-2.005a4.072 4.072 0 0 1 1.206-1.395 5.352 5.352 0 0 1 1.709-.816 7.292 7.292 0 0 1 1.967-.267c.755 0 1.456.093 2.101.278a4.683 4.683 0 0 1 1.7.88 4.22 4.22 0 0 1 1.152 1.513c.282.608.436 1.334.465 2.178h-1.855c-.11-1.102-.49-1.899-1.143-2.394z" fill="#822920" fill-rule="nonzero"/></svg>