<?xml version="1.0" encoding="UTF-8"?>
<svg width="36px" height="36px" viewBox="0 0 36 36" version="1.1" xmlns="http://www.w3.org/2000/svg" xmlns:xlink="http://www.w3.org/1999/xlink">
    <!-- Generator: Sketch 45.2 (43514) - http://www.bohemiancoding.com/sketch -->
    <title>admin-agent</title>
    <desc>Created with Sketch.</desc>
    <defs></defs>
    <g id="Page-2" stroke="none" stroke-width="1" fill="none" fill-rule="evenodd">
        <g id="admin-agent" fill-rule="nonzero" fill="#333333">
            <path d="M27,34 L20,34 L20,32 L27,32 C28.6568542,32 30,30.6568542 30,29 L32,29 C32,31.7614237 29.7614237,34 27,34 Z" id="Shape" opacity="0.5"></path>
            <circle id="Oval" cx="20" cy="33" r="3"></circle>
            <rect id="Rectangle-path" opacity="0.5" x="32" y="17" width="4" height="9"></rect>
            <path d="M32,14 L30,14 C30,7.372583 24.627417,2 18,2 C11.372583,2 6,7.372583 6,14 L4,14 C4,6.2680135 10.2680135,-3.02054922e-15 18,-4.4408921e-15 C25.7319865,-5.86123498e-15 32,6.2680135 32,14 L32,14 Z" id="Shape" opacity="0.5"></path>
            <g id="Content-block-types" transform="translate(28.000000, 14.000000)">
                <g id="Page-1">
                    <path d="M2,3.55271368e-15 L6,3.55271368e-15 L6,15 L2,15 C0.8954305,15 -3.55271368e-15,14.1045695 -3.55271368e-15,13 L-3.55271368e-15,2 C-3.55271368e-15,0.8954305 0.8954305,3.55271368e-15 2,3.55271368e-15 Z" id="Shape" transform="translate(3.000000, 7.500000) rotate(180.000000) translate(-3.000000, -7.500000) "></path>
                </g>
            </g>
            <rect id="Rectangle-path" opacity="0.5" x="0" y="17" width="4" height="9"></rect>
            <g id="Content-block-types-2" transform="translate(2.000000, 14.000000)">
                <g id="Page-1-2">
                    <path d="M2,0 L6,0 L6,15 L2,15 C0.8954305,15 0,14.1045695 0,13 L0,2 C-2.22044605e-16,0.8954305 0.8954305,0 2,0 Z" id="Shape"></path>
                </g>
            </g>
        </g>
    </g>
</svg>