<?xml version="1.0" encoding="utf-8"?>
<!-- Generator: Adobe Illustrator 22.1.0, SVG Export Plug-In . SVG Version: 6.00 Build 0)  -->
<svg version="1.1" id="Layer_1" xmlns="http://www.w3.org/2000/svg" xmlns:xlink="http://www.w3.org/1999/xlink" x="0px" y="0px"
	 viewBox="0 0 200 200" style="enable-background:new 0 0 200 200;" xml:space="preserve">
<style type="text/css">
	.st0{fill:#00539B;}
</style>
<path class="st0" d="M140.8,140.3c0.1,0.4,0.4,0.6,0.7,0.8c0.3,0.2,0.8,0.3,1.4,0.3c0.5,0,0.9-0.1,1.3-0.2c0.4-0.1,0.8-0.4,1.2-0.7
	c0.4-0.3,0.7-0.5,0.9-0.8c0.3-0.3,0.5-0.8,0.7-1.5c0.2-0.6,0.3-1.3,0.3-1.9c0-0.3,0-0.6-0.1-0.9c-0.1-0.3-0.2-0.5-0.4-0.7
	c-0.2-0.2-0.4-0.4-0.8-0.5c-0.3-0.1-0.7-0.2-1.1-0.2c-0.5,0-1,0.1-1.4,0.3c-0.4,0.2-0.9,0.4-1.2,0.7c-0.4,0.3-0.6,0.5-0.8,0.7
	c-0.2,0.3-0.5,0.8-0.7,1.4c-0.2,0.7-0.3,1.3-0.3,1.9C140.6,139.5,140.7,139.9,140.8,140.3L140.8,140.3z M142.7,136.8
	c0.2-0.8,0.5-1.4,0.7-1.7c0.3-0.3,0.6-0.4,1-0.4c0.4,0,0.7,0.1,0.9,0.4c0.2,0.3,0.4,0.7,0.4,1.3c0,0.7-0.1,1.4-0.3,2.2
	c-0.1,0.5-0.3,0.9-0.5,1.2c-0.2,0.3-0.4,0.5-0.6,0.7c-0.2,0.1-0.4,0.2-0.7,0.2c-0.4,0-0.7-0.1-1-0.4c-0.2-0.3-0.3-0.7-0.3-1.3
	C142.4,138.4,142.5,137.6,142.7,136.8L142.7,136.8z M149.4,135.1c0.3,0,0.7,0,1,0l-1.1,5.5c-0.3,1.5-0.5,2.5-0.7,3
	c-0.1,0.2-0.2,0.4-0.3,0.5c-0.1,0.1-0.3,0.1-0.4,0.1c-0.1,0-0.3-0.1-0.4-0.2c-0.1-0.1-0.2-0.3-0.3-0.5l-0.2,0
	c-0.1,0.3-0.1,0.5-0.2,0.7c-0.1,0.2-0.2,0.5-0.3,0.9c0.2,0.1,0.4,0.1,0.6,0.1c0.2,0,0.5-0.1,0.7-0.2c0.5-0.3,0.9-0.6,1.4-1.2
	c0.5-0.5,0.8-1.2,1.1-1.9c0.3-0.7,0.6-1.8,1-3.4l0.8-3.5c0.2,0,0.4,0,0.7,0c0.5,0,0.9,0,1.1,0c0-0.2,0.1-0.5,0.2-0.8l-0.1-0.1
	c-0.2,0-0.4,0.1-0.7,0.1c-0.5,0-0.9,0-1,0h-0.2c0.1-0.6,0.3-1.3,0.4-1.9c0.1-0.2,0.1-0.4,0.2-0.5c0.1-0.1,0.2-0.2,0.3-0.3
	c0.1-0.1,0.2-0.1,0.4-0.1c0.2,0,0.3,0.1,0.5,0.2c0.2,0.1,0.4,0.3,0.6,0.7l0.2,0c0.1-0.6,0.2-1.2,0.4-1.9c-0.2-0.1-0.4-0.1-0.6-0.1
	c-0.3,0-0.5,0-0.7,0.1c-0.2,0.1-0.5,0.3-1,0.7c-0.5,0.4-1,0.8-1.4,1.2c-0.3,0.3-0.5,0.5-0.6,0.8c-0.1,0.2-0.2,0.4-0.3,0.9
	c0,0.2-0.1,0.3-0.1,0.4c-0.2,0.1-0.5,0.2-0.8,0.3c-0.3,0.1-0.6,0.2-0.7,0.2l-0.1,0.4C149.1,135.1,149.2,135.1,149.4,135.1
	L149.4,135.1L149.4,135.1z"/>
<path class="st0" d="M47.8,151.6h-1.3c0,0.9-0.1,1.5-0.2,1.7c-0.1,0.2-0.2,0.3-0.3,0.3c-0.3,0.1-1.2,0.2-2.5,0.2
	c-0.5,0-1.3,0-2.6-0.1v-2.1c0-2.6,0.1-4.4,0.2-5.4c0.3,0,0.8,0,1.6-0.1c0.8,0,1.3,0,1.4,0c0.9,0,1.7,0.1,2.3,0.2
	c0.7,0.1,1.1,0.2,1.3,0.4c0.1,0,0.1,0.1,0.1,0.2c0,0.1,0.1,0.4,0.1,0.8c0.1,0.8,0.1,1.4,0.1,1.6h1.2c0-0.7,0.1-1.4,0.1-2.3
	c0.1-0.9,0.2-1.6,0.3-2.2l-0.1-0.2c-0.9-0.1-1.9-0.2-2.9-0.2l-7.3,0.1l-5.4-0.1v1.3c1,0.1,1.6,0.1,1.8,0.2c0.2,0.1,0.4,0.1,0.4,0.2
	c0.1,0.1,0.1,0.1,0.1,0.3c0.1,0.3,0.1,0.9,0.2,1.7c0.1,2.7,0.1,4.1,0.1,4.2v6.3c0,0.5,0,1.4-0.1,2.6c-0.1,1.2-0.1,2-0.1,2.2
	c-0.1,0.4-0.1,0.7-0.2,0.8c-0.1,0.1-0.1,0.1-0.2,0.2c-0.2,0.1-0.9,0.1-2,0.1v1.3c1.9-0.1,3.2-0.1,4.1-0.1l5.9,0.1v-1.2
	c-1.4-0.1-2.2-0.2-2.4-0.3c-0.2-0.1-0.3-0.2-0.4-0.3c-0.1-0.2-0.2-0.7-0.2-1.7c-0.1-1-0.1-2.6-0.1-5v-1.7c0.6,0,1,0,1.2,0
	c1.6,0,2.8,0.1,3.5,0.2c0.3,0.1,0.5,0.2,0.5,0.3c0.1,0.3,0.2,1,0.3,2.3h1.3C47.8,155.5,47.8,153.3,47.8,151.6L47.8,151.6L47.8,151.6
	z M56.2,165.4c0.7,0,1.8,0,3.5,0.1c2.2,0.1,3.4,0.1,3.6,0.1c1.3,0,2.2,0,2.9-0.1c0.3,0,0.6-0.1,0.9-0.2c0-0.2,0.1-0.8,0.1-1.7
	l0.4-3.1c0,0,0-0.2,0-0.5h-1.3c-0.2,1-0.4,1.9-0.6,2.6c-0.1,0.3-0.2,0.5-0.3,0.6c-0.1,0.1-0.3,0.1-0.7,0.2c-1.1,0.2-2.5,0.3-4,0.3
	c-0.5,0-1.5,0-2.8-0.1c0-0.3,0-1.2,0-2.6c0-1.4,0-2.8,0-4.3c0-2.7,0-4.2,0-4.4c0-1.7,0-3.1,0.1-4.2c0-1.1,0.1-1.7,0.1-1.9
	c0.1-0.1,0.1-0.2,0.2-0.3c0.3-0.1,0.9-0.2,2.1-0.3v-1.3c-1.6,0.1-3.4,0.1-5.2,0.1c-1.6,0-3.1,0-4.4-0.1v1.3c1.3,0,2.1,0.2,2.3,0.3
	c0.1,0.1,0.2,0.2,0.2,0.3c0.1,0.3,0.2,1.4,0.2,3.3c0,0.7,0,2.7,0,5.9c0,2.2,0,4-0.1,5.6c0,1.6-0.1,2.5-0.1,2.7c0,0.1,0,0.1-0.1,0.2
	c-0.1,0.1-0.2,0.2-0.4,0.3c-0.5,0.3-0.8,0.5-1.1,0.6v0.8C53.8,165.4,55.3,165.4,56.2,165.4L56.2,165.4L56.2,165.4z M69.3,161.2
	c0.9,1.6,2.2,2.8,3.8,3.6c1.6,0.8,3.6,1.2,5.8,1.2c2.1,0,4-0.3,5.6-1c1.2-0.5,2.3-1.2,3.2-2.2c0.9-0.9,1.6-2,2.1-3.2
	c0.7-1.6,1-3.4,1-5.3c0-1.1-0.1-2.1-0.3-3.1c-0.2-0.9-0.6-1.8-1-2.6c-0.4-0.8-1.1-1.5-1.9-2.3c-0.9-0.7-1.8-1.3-2.9-1.7
	c-1.5-0.5-3.2-0.8-5-0.8c-1.8,0-3.6,0.3-5.1,0.8c-1.2,0.4-2.4,1.1-3.4,2.1c-1,1-1.8,2.1-2.4,3.5c-0.6,1.4-0.8,3-0.8,4.8
	C67.9,157.6,68.4,159.6,69.3,161.2L69.3,161.2z M73.3,149.8c0.5-1.4,1.2-2.4,2.3-3.1c1-0.7,2.3-1,3.8-1c1.3,0,2.3,0.2,3.1,0.7
	c0.8,0.4,1.5,1.1,2,1.9c0.6,0.8,1,1.8,1.3,3c0.3,1.2,0.5,2.5,0.5,3.9c0,2.1-0.3,3.8-0.9,5.3c-0.6,1.4-1.4,2.5-2.4,3.1
	c-1,0.6-2.1,0.9-3.4,0.9c-1.4,0-2.6-0.3-3.6-1c-1-0.6-1.8-1.7-2.5-3.3c-0.6-1.5-1-3.5-1-5.8C72.6,152.6,72.8,151.1,73.3,149.8
	L73.3,149.8z M93.1,145.9c0.1,0.1,0.2,0.1,0.2,0.3c0.1,0.3,0.2,1,0.2,2.3l0.1,3.2v5.6l-0.1,4.4c0,0.8-0.1,1.4-0.2,1.8
	c0,0.2-0.1,0.4-0.1,0.4c-0.1,0.1-0.1,0.1-0.3,0.2c-0.2,0.1-0.9,0.1-2,0.2v1.3c1.3-0.1,2.8-0.1,4.4-0.1c1.8,0,3.5,0,5.2,0.1v-1.3
	c-1,0-1.6-0.1-1.8-0.1c-0.2,0-0.3-0.1-0.4-0.2c-0.1-0.1-0.2-0.1-0.2-0.2c-0.1-0.2-0.1-0.5-0.2-1.1c0-0.3-0.1-1.5-0.1-3.5
	c0-1.7,0-3.3,0-4.8c0-1,0-2.9,0.1-5.7c0-1.3,0.1-2.1,0.1-2.5c0.5-0.1,1-0.1,1.4-0.1c1.1,0,1.8,0.1,2.3,0.2c0.7,0.2,1.2,0.7,1.7,1.3
	c0.4,0.6,0.7,1.4,0.7,2.3c0,0.9-0.2,1.7-0.6,2.5c-0.4,0.7-0.9,1.3-1.6,1.5c-0.6,0.3-1.5,0.4-2.7,0.4l-0.2,0.5c0.3,0.2,0.6,0.6,0.9,1
	c0.6,0.9,1.4,2.1,2.4,3.6l3.2,5.3c0.2,0.4,0.3,0.6,0.4,0.9c0.8,0,1.6-0.1,2.4-0.1c0.7,0,1.8,0,3.4,0.1v-1.3c-0.5,0-0.8-0.1-1-0.1
	c-0.2-0.1-0.3-0.2-0.5-0.4c-0.2-0.2-0.6-0.8-1.4-1.8c0-0.1-0.4-0.6-1-1.5l-2.3-3.5c-0.1-0.1-0.1-0.2-0.2-0.3
	c-0.1-0.1-0.2-0.4-0.6-0.9c-0.3-0.5-0.6-0.9-0.9-1.4c1.6-0.6,2.7-1.4,3.5-2.4c0.8-1,1.1-2.1,1.1-3.3c0-1-0.3-1.9-0.8-2.6
	c-0.6-0.7-1.2-1.2-2-1.4c-0.8-0.2-2-0.3-3.6-0.3c-0.8,0-1.9,0-3.1,0.1c-0.8,0-1.7,0.1-2.7,0.1c-1.2,0-2.2,0-2.9,0
	c-1.4,0-2.2-0.1-2.4-0.1v1.2C92.1,145.7,92.8,145.8,93.1,145.9L93.1,145.9L93.1,145.9z M117.2,144.4c-1.6,0-3.1,0-4.4-0.1v1.3
	c1.1,0,1.7,0.1,1.9,0.1c0.2,0,0.3,0.1,0.4,0.2c0.1,0.1,0.1,0.2,0.1,0.3c0.1,0.3,0.1,1.1,0.2,2.4c0,0.6,0,1.9,0,3.9v6.3
	c0,1,0,2.2-0.1,3.4c-0.1,0.8-0.1,1.3-0.1,1.4c0,0.1-0.1,0.2-0.1,0.2c-0.1,0.1-0.2,0.1-0.4,0.2c-0.2,0-0.8,0.1-1.8,0.1v1.3
	c1.3-0.1,2.7-0.1,4.3-0.1c1.9,0,3.6,0,5.3,0.1v-1.3c-1,0-1.6-0.1-1.8-0.1c-0.2,0-0.4-0.1-0.5-0.2c-0.1-0.1-0.2-0.2-0.2-0.3
	c-0.1-0.3-0.2-1-0.2-2l0-2.8v-6.1c0-0.2,0-1.5,0.1-4c0-0.7,0-1.2,0-1.5c0-0.5,0.1-0.8,0.2-1c0-0.1,0.1-0.2,0.2-0.3
	c0.1-0.1,0.2-0.1,0.4-0.2c0.2,0,0.8-0.1,1.8-0.1v-1.3C120.8,144.4,119.1,144.4,117.2,144.4L117.2,144.4L117.2,144.4z M128.9,165.4
	l4.5,0.1c2,0,3.8-0.2,5.2-0.7c1.4-0.4,2.8-1.2,4-2.2c1.2-1,2.2-2.3,2.9-3.8c0.7-1.5,1.1-3.2,1.1-5.2c0-1.5-0.2-2.9-0.7-4.2
	c-0.3-0.8-0.7-1.5-1.2-2.1c-0.6-0.7-1.2-1.2-2-1.7c-0.8-0.5-1.7-0.8-2.8-1c-1.1-0.2-2.5-0.3-4.3-0.3c-0.8,0-1.8,0-3.1,0.1
	c-1.8,0.1-3,0.1-3.6,0.1l-5.5-0.1v1.2c1.1,0.1,1.7,0.2,1.9,0.3c0.2,0,0.3,0.1,0.4,0.2c0,0,0.1,0.1,0.1,0.2c0.1,0.4,0.2,1.3,0.2,2.7
	c0.1,2.6,0.1,4.5,0.1,5.9v2.5c0,3-0.1,5.2-0.2,6.6c-0.3,0.2-0.7,0.5-1,0.7c-0.2,0.1-0.3,0.2-0.4,0.2v0.7L128.9,165.4L128.9,165.4z
	 M130.2,157.7v-3.5c0-4,0.1-6.7,0.2-8.1c0.9-0.1,1.8-0.2,2.6-0.2c2.1,0,3.6,0.2,4.6,0.5c1,0.4,1.9,0.9,2.5,1.8
	c0.7,0.8,1.1,1.7,1.4,2.8c0.3,1.1,0.4,2.2,0.4,3.3c0,1.3-0.1,2.4-0.4,3.5c-0.3,1.1-0.7,2-1.2,2.8c-0.5,0.8-1.1,1.4-1.7,1.8
	c-0.6,0.4-1.2,0.7-2,0.9c-1,0.3-2.2,0.4-3.6,0.4c-0.9,0-1.8-0.1-2.7-0.2C130.3,162.7,130.2,160.7,130.2,157.7L130.2,157.7
	L130.2,157.7z M147.4,165.4l3.5,0.1v-1.3c-1.2,0-1.9-0.1-2.2-0.3c-0.2-0.1-0.2-0.3-0.2-0.5c0-0.3,0.3-1.2,0.8-2.6l0.7-1.8h7.8
	l1.3,3.3c0.2,0.6,0.3,1,0.3,1.2c0,0.2-0.1,0.3-0.2,0.4c-0.2,0.1-0.8,0.2-2.1,0.2v1.3l5.3-0.1l4.2,0.1v-1.3c-0.3,0-0.5-0.1-0.7-0.1
	c-0.5,0-0.8-0.1-0.9-0.1c-0.1,0-0.2-0.1-0.3-0.2c-0.1-0.1-0.2-0.2-0.3-0.4l-0.6-1.4l-0.9-2.1l-6.8-15.8H154l-1.3,3.4l-3.9,9.8
	c-0.7,1.8-1.3,3.1-1.5,3.7c-0.6,1.3-0.9,2.1-1,2.3c-0.1,0.2-0.2,0.4-0.3,0.5c-0.1,0.1-0.2,0.2-0.4,0.2c-0.2,0-0.6,0.1-1.5,0.2v1.3
	L147.4,165.4L147.4,165.4z M153.7,149.5l3.2,7.8c-0.9,0-2,0-3.1,0c-1.2,0-2.3,0-3.2,0L153.7,149.5L153.7,149.5z"/>
<path class="st0" d="M34.8,132.1c0.1,0.1,0.1,0.1,0.2,0.2c0,0.1,0.1,0.2,0.1,0.4c0,0.5,0,1,0,1.6v1.6l0,1.2c0,0.7,0,1.1,0,1.2
	c0,0.2,0.1,0.5,0.2,0.8c0.1,0.3,0.3,0.5,0.6,0.7c0.3,0.2,0.6,0.4,1,0.5c0.6,0.2,1.2,0.3,1.8,0.3c0.6,0,1-0.1,1.5-0.2
	c0.4-0.1,0.8-0.3,1.1-0.5c0.3-0.2,0.5-0.5,0.7-0.8c0.2-0.3,0.3-0.6,0.3-1c0.1-0.4,0.1-0.8,0.1-1.2v-1.5c0-0.4,0-1,0-1.8
	c0-0.8,0.1-1.2,0.1-1.3c0-0.1,0.1-0.2,0.1-0.2c0.1-0.1,0.3-0.1,0.7-0.1v-0.5l-1.4,0c-0.1,0-0.1,0-0.2,0c-0.1,0-0.6,0-1.4,0v0.5
	c0.5,0,0.8,0.1,0.9,0.1c0.1,0,0.1,0.1,0.1,0.2c0,0.1,0.1,0.4,0.1,1c0,0.2,0,0.9,0,2v1.3c0,0.9-0.1,1.5-0.2,1.8
	c-0.1,0.3-0.4,0.6-0.7,0.8c-0.3,0.2-0.8,0.3-1.4,0.3c-0.5,0-0.9-0.1-1.3-0.2c-0.3-0.1-0.6-0.3-0.7-0.6c-0.2-0.2-0.3-0.6-0.3-1
	c0-0.2,0-0.7,0-1.4l0-0.7v-1.5c0-0.9,0-1.5,0.1-1.7c0-0.1,0.1-0.2,0.1-0.2c0.1-0.1,0.4-0.1,0.9-0.1v-0.5l-0.2,0l-0.9,0l-0.9,0
	l-2.1,0v0.5L34.8,132.1L34.8,132.1z M46.1,140.4c0.7,0,1.3,0,1.7,0c0.1,0,0.6,0,1.4,0v-0.5c-0.1,0-0.1,0-0.1,0c-0.1,0-0.3,0-0.6-0.1
	c-0.1,0-0.2,0-0.2-0.1c0,0-0.1-0.1-0.1-0.1c0-0.1-0.1-0.4-0.1-0.9c0-0.7,0-1.4,0-2.1v-3.2c2.5,3.1,4.4,5.4,5.8,6.9
	c0.4,0.1,0.7,0.1,1.1,0.2l0.1-0.1c-0.1-0.6-0.1-2.3-0.1-5.1c0-0.4,0-0.9,0-1.7c0-0.8,0.1-1.2,0.1-1.5c0,0,0-0.1,0.1-0.1
	c0.1-0.1,0.4-0.1,0.9-0.1v-0.5c-0.7,0-1.2,0-1.6,0c-0.4,0-0.9,0-1.4,0v0.5c0.6,0,0.9,0.1,1,0.1c0.1,0,0.1,0.1,0.1,0.3
	c0.1,0.4,0.1,1.7,0.1,4v1.5c-0.6-0.6-1.3-1.4-2.2-2.5c-1.2-1.5-2.3-2.8-3.2-3.9l-0.6,0l-0.9,0c-0.3,0-0.6,0-1.2,0v0.5
	c0.4,0,0.7,0.1,0.8,0.1c0.1,0,0.2,0.1,0.2,0.1c0,0,0.1,0.1,0.1,0.2c0,0.1,0,0.3,0,0.6l0,1.8v2c0,0.6,0,1,0,1.4c0,0.6-0.1,1-0.1,1.2
	c0,0.1,0,0.2-0.1,0.2c0,0-0.1,0.1-0.1,0.1c-0.1,0-0.4,0-0.9,0.1V140.4L46.1,140.4z M60.8,131.5c-0.7,0-1.3,0-1.8,0v0.6
	c0.5,0,0.7,0,0.8,0.1c0.1,0,0.1,0,0.2,0.1c0,0,0,0.1,0.1,0.1c0,0.1,0.1,0.5,0.1,1c0,0.2,0,0.8,0,1.6v2.7c0,0.4,0,0.9-0.1,1.4
	c0,0.3,0,0.5-0.1,0.6c0,0,0,0.1-0.1,0.1c0,0-0.1,0.1-0.2,0.1c-0.1,0-0.3,0-0.8,0v0.6c0.5,0,1.1,0,1.8,0c0.8,0,1.5,0,2.2,0v-0.6
	c-0.4,0-0.7,0-0.8,0c-0.1,0-0.2,0-0.2-0.1c0,0-0.1-0.1-0.1-0.1c0-0.1-0.1-0.4-0.1-0.8l0-1.2V135c0-0.1,0-0.6,0-1.7
	c0-0.3,0-0.5,0-0.6c0-0.2,0-0.3,0.1-0.4c0,0,0-0.1,0.1-0.1c0,0,0.1,0,0.2-0.1c0.1,0,0.3,0,0.8,0v-0.6
	C62.3,131.5,61.5,131.5,60.8,131.5L60.8,131.5L60.8,131.5z M70.9,140.4c0.3-0.7,0.8-2,1.5-3.7l0.9-2l0.5-1.1
	c0.4-0.9,0.6-1.4,0.7-1.4c0.1-0.1,0.3-0.1,0.7-0.1v-0.6l-1.4,0l-1.6,0v0.6c0.2,0,0.4,0,0.7,0c0.1,0,0.2,0,0.2,0c0,0,0.1,0,0.1,0.1
	c0,0,0,0.1,0,0.2c0,0.1,0,0.1,0,0.2c0,0.2-0.2,0.5-0.3,1c-0.3,0.7-0.4,1.1-0.5,1.2l-1.4,3.5l-1.6-3.9c0,0,0-0.1,0-0.1
	c0,0-0.1-0.2-0.3-0.6c-0.3-0.7-0.4-1.1-0.4-1.2c0-0.1,0-0.1,0.1-0.2c0,0,0.1-0.1,0.2-0.1c0.2,0,0.4-0.1,0.8-0.1v-0.6l-2.3,0
	c-0.2,0-0.8,0-1.9,0v0.6c0.4,0,0.7,0,0.8,0.1c0.1,0,0.2,0.2,0.4,0.6c0.2,0.3,0.6,1.3,1.3,3l0.9,2.2c0.3,0.8,0.7,1.6,1,2.5H70.9
	L70.9,140.4z M80.1,140.3c0.4,0,1.1,0,2.1,0l1,0c0.5,0,0.9,0,1.2,0l0.1-0.1c0-0.5,0-1.2,0.1-2.1H84c-0.1,0.6-0.2,1-0.2,1.2
	c0,0.1-0.1,0.1-0.1,0.1c-0.1,0.1-0.3,0.1-0.7,0.1c-0.4,0-0.8,0-1.3,0c-0.5,0-0.9,0-1.2,0c0-0.2,0-0.5,0-0.8v-2.7c0.3,0,0.6,0,1,0
	c0.5,0,0.8,0,1.1,0.1c0.1,0,0.2,0.1,0.3,0.2c0.1,0.1,0.1,0.4,0.1,0.9h0.5l0-1.4l0-1.4H83c0,0.4,0,0.6-0.1,0.8c0,0.1-0.1,0.1-0.1,0.1
	c0,0-0.2,0-0.4,0c-0.6,0-1,0-1,0c-0.3,0-0.6,0-0.9,0v-1.3c0-0.7,0-1.4,0.1-1.8c0.4,0,0.8,0,1.2,0c0.4,0,0.8,0,1.2,0.1
	c0.3,0,0.5,0.1,0.5,0.1c0,0,0.1,0.1,0.1,0.1c0,0.1,0,0.4,0.1,0.9h0.5c0-0.5,0.1-0.9,0.1-0.9l0.1-0.9l0-0.1c-0.1,0-0.2,0-0.2,0
	c-0.5,0-0.8,0-0.9,0l-1.3,0c-0.7,0-1.4,0-1.9,0c-0.3,0-0.5,0-0.8,0l-1.5,0v0.5c0.5,0,0.8,0.1,0.9,0.1c0,0,0.1,0.1,0.1,0.1
	c0,0.1,0.1,0.4,0.1,0.9c0,0.7,0,1.1,0,1.2v2.9c0,0.3,0,0.9-0.1,1.6c0,0.4,0,0.7-0.1,0.9c-0.2,0.1-0.4,0.3-0.6,0.4v0.3
	C79.3,140.3,80,140.3,80.1,140.3L80.1,140.3L80.1,140.3z M88.4,132.1c0,0,0.1,0.1,0.1,0.1c0,0.1,0.1,0.4,0.1,1l0,1.3v2.4l-0.1,1.9
	c0,0.3,0,0.6-0.1,0.8c0,0.1,0,0.1-0.1,0.2c0,0-0.1,0.1-0.1,0.1c-0.1,0-0.4,0.1-0.9,0.1v0.6c0.6,0,1.2,0,1.8,0c0.7,0,1.5,0,2.2,0
	v-0.6c-0.4,0-0.7,0-0.7,0c-0.1,0-0.1,0-0.2-0.1c0,0-0.1-0.1-0.1-0.1c0-0.1-0.1-0.2-0.1-0.5c0-0.1,0-0.6,0-1.5c0-0.7,0-1.4,0-2
	c0-0.4,0-1.2,0-2.4c0-0.5,0-0.9,0-1c0.2,0,0.4-0.1,0.6-0.1c0.5,0,0.8,0,1,0.1c0.3,0.1,0.5,0.3,0.7,0.5c0.2,0.3,0.3,0.6,0.3,1
	c0,0.4-0.1,0.7-0.3,1c-0.2,0.3-0.4,0.5-0.7,0.6c-0.3,0.1-0.6,0.2-1.1,0.2l-0.1,0.2c0.1,0.1,0.3,0.2,0.4,0.4c0.3,0.4,0.6,0.9,1,1.5
	l1.4,2.2c0.1,0.1,0.1,0.3,0.2,0.4c0.3,0,0.7,0,1,0c0.3,0,0.8,0,1.4,0v-0.6c-0.2,0-0.3,0-0.4-0.1c-0.1,0-0.1-0.1-0.2-0.2
	c-0.1-0.1-0.3-0.3-0.6-0.7c0,0-0.2-0.2-0.4-0.6l-1-1.5c0,0,0-0.1-0.1-0.1c0,0-0.1-0.2-0.2-0.4c-0.1-0.2-0.3-0.4-0.4-0.6
	c0.7-0.2,1.1-0.6,1.5-1c0.3-0.4,0.5-0.9,0.5-1.4c0-0.4-0.1-0.8-0.3-1.1c-0.2-0.3-0.5-0.5-0.8-0.6c-0.3-0.1-0.8-0.1-1.5-0.1
	c-0.3,0-0.8,0-1.3,0c-0.3,0-0.7,0-1.1,0c-0.5,0-0.9,0-1.2,0c-0.6,0-0.9,0-1,0v0.5C88,132.1,88.3,132.1,88.4,132.1L88.4,132.1
	L88.4,132.1z M104.8,132.8c0-0.3,0.1-0.5,0.1-0.8l-0.1-0.2c-0.3-0.2-0.7-0.3-1.1-0.3c-0.4-0.1-0.9-0.1-1.3-0.1c-0.4,0-0.9,0-1.3,0.1
	c-0.4,0.1-0.8,0.3-1.1,0.5c-0.3,0.2-0.6,0.5-0.8,0.9c-0.2,0.4-0.3,0.8-0.3,1.3c0,0.3,0.1,0.7,0.2,0.9c0.1,0.3,0.3,0.5,0.5,0.8
	c0.2,0.2,0.5,0.4,0.9,0.5c0.2,0.1,0.7,0.2,1.5,0.3c0.5,0.1,0.9,0.2,1.1,0.4c0.2,0.1,0.4,0.3,0.5,0.5c0.1,0.2,0.1,0.4,0.1,0.7
	c0,0.3-0.1,0.6-0.2,0.8c-0.1,0.3-0.4,0.4-0.7,0.6c-0.3,0.1-0.7,0.2-1.1,0.2c-0.5,0-0.9-0.1-1.3-0.3c-0.4-0.2-0.7-0.4-0.8-0.7
	c-0.1-0.5-0.1-0.8-0.1-1.1h-0.5c0,1-0.1,1.7-0.2,2.2c0.5,0.2,0.9,0.4,1.3,0.5c0.4,0.1,0.9,0.1,1.4,0.1c0.7,0,1.3-0.1,1.8-0.3
	c0.3-0.1,0.6-0.3,0.9-0.6c0.3-0.3,0.5-0.5,0.7-0.8c0.2-0.4,0.3-0.9,0.3-1.4c0-0.3,0-0.6-0.1-0.8c-0.1-0.2-0.2-0.5-0.3-0.6
	c-0.1-0.2-0.3-0.3-0.5-0.4s-0.5-0.2-0.8-0.3c-0.1,0-0.4-0.1-0.9-0.2c-0.4-0.1-0.8-0.1-1-0.2c-0.3-0.1-0.6-0.2-0.7-0.3
	c-0.2-0.1-0.3-0.2-0.4-0.4c-0.1-0.2-0.1-0.4-0.1-0.7c0-0.4,0.2-0.7,0.5-1c0.3-0.3,0.8-0.4,1.3-0.4c0.4,0,0.8,0.1,1.1,0.2
	c0.3,0.1,0.6,0.3,0.7,0.5c0,0.2,0.1,0.5,0.1,1h0.5C104.8,133.4,104.8,133,104.8,132.8L104.8,132.8z M110.4,131.5c-0.7,0-1.3,0-1.8,0
	v0.6c0.5,0,0.7,0,0.8,0.1c0.1,0,0.1,0,0.2,0.1c0,0,0,0.1,0.1,0.1c0,0.1,0.1,0.5,0.1,1c0,0.2,0,0.8,0,1.6v2.7c0,0.4,0,0.9-0.1,1.4
	c0,0.3,0,0.5-0.1,0.6c0,0,0,0.1-0.1,0.1c0,0-0.1,0.1-0.2,0.1c-0.1,0-0.3,0-0.8,0v0.6c0.5,0,1.1,0,1.8,0c0.8,0,1.5,0,2.2,0v-0.6
	c-0.4,0-0.7,0-0.8,0c-0.1,0-0.2,0-0.2-0.1c0,0-0.1-0.1-0.1-0.1c0-0.1-0.1-0.4-0.1-0.8l0-1.2V135c0-0.1,0-0.6,0-1.7
	c0-0.3,0-0.5,0-0.6c0-0.2,0-0.3,0.1-0.4c0,0,0-0.1,0.1-0.1c0,0,0.1,0,0.2-0.1c0.1,0,0.3,0,0.8,0v-0.6
	C112,131.5,111.2,131.5,110.4,131.5L110.4,131.5L110.4,131.5z M119.3,140.3c0.6,0,1.3,0,2.1,0.1v-0.5c-0.5,0-0.8-0.1-0.9-0.1
	c-0.1-0.1-0.2-0.1-0.2-0.2c0-0.2-0.1-0.7-0.1-1.6v-3.8c0-1,0-1.6,0-1.7h0.9c0.5,0,0.9,0,1.3,0.1c0.1,0,0.2,0,0.2,0
	c0,0,0.1,0.1,0.1,0.3c0,0.3,0.1,0.6,0.1,0.9h0.5c0-0.9,0-1.4,0-1.4c0-0.2,0-0.4,0.1-0.7l-0.1-0.1c-0.2,0-0.4,0-0.6,0
	c-0.4,0-1.1,0-2.1,0H118c-1,0-1.7,0-2.1,0c-0.2,0-0.4,0-0.6,0l-0.1,0.1c0,0.2,0,0.4,0.1,0.6c0,0.1,0,0.6,0,1.5h0.5
	c0-0.4,0-0.7,0.1-1c0-0.1,0-0.2,0.1-0.2c0,0,0.1,0,0.2-0.1c0.3,0,0.8,0,1.2,0h0.9c0,0.1,0,0.7,0,1.7v3.8c0,0.9,0,1.5-0.1,1.6
	c0,0.1-0.1,0.2-0.2,0.3c-0.1,0.1-0.4,0.1-0.9,0.1v0.5C118,140.3,118.7,140.3,119.3,140.3L119.3,140.3L119.3,140.3z M129.7,133.9
	c-0.3-0.6-0.6-1.1-0.9-1.6c-0.2-0.3-0.4-0.5-0.5-0.6c-0.1-0.1-0.3-0.2-0.6-0.4c-0.2,0.1-0.5,0.1-0.7,0.2l-1.3,0.3v0.5
	c0.3,0,0.5,0,0.6,0c0.1,0,0.2,0.2,0.5,0.4c0.3,0.3,0.7,0.8,1,1.4c0.5,0.7,0.9,1.4,1.3,2.1c0.2,0.3,0.2,0.5,0.2,0.6v1.2
	c0,0.3,0,0.7,0,1.2c0,0.2,0,0.3-0.1,0.4c0,0-0.1,0.1-0.2,0.1c-0.1,0-0.4,0-0.8,0.1v0.6c0.7,0,1.3,0,1.9,0c0.7,0,1.4,0,2.2,0v-0.6
	c-0.5,0-0.8,0-0.8-0.1c-0.1,0-0.2-0.1-0.2-0.1c0-0.1-0.1-0.2-0.1-0.4c0-0.2,0-0.6,0-1.2V137c0-0.2,0-0.4,0-0.5
	c0-0.1,0.1-0.3,0.2-0.5c0.1-0.3,0.5-0.9,1.1-1.8c0.6-0.9,1.1-1.7,1.7-2.4v-0.3h-1c-0.1,0.1-0.2,0.4-0.4,0.8
	c-0.7,1.2-1.1,1.9-1.2,2.1l-0.8,1.3C130.5,135.5,130.2,134.9,129.7,133.9L129.7,133.9L129.7,133.9z"/>
<g>
	<polygon class="st0" points="128.3,108.7 128.3,85.9 149.3,85.9 149.3,70.9 128.3,70.9 128.3,49.6 151.4,49.6 151.4,57.9 
		166.6,57.9 166.6,34.7 105.7,34.7 105.7,49.6 111.4,49.6 111.4,108.7 105.7,108.7 105.7,123.7 133.8,123.7 133.8,108.7 
		128.3,108.7 	"/>
	<path class="st0" d="M98.6,90.1V49.6h5.6V34.7H76v14.9h5.5V85c0,14.9-1.7,22-12.4,22c-10.7,0-12.4-7.1-12.4-22V49.6h5.4V34.7H34
		v14.9h5.6v40.5c0,8.8,0,16.1,4.2,22.6c4.7,7.4,13.1,12.1,25.4,12.1C90.9,124.7,98.6,113.4,98.6,90.1L98.6,90.1z"/>
</g>
<g>
</g>
<g>
</g>
<g>
</g>
<g>
</g>
<g>
</g>
<g>
</g>
</svg>
