<?xml version="1.0" encoding="utf-8"?>
<!-- Generator: Adobe Illustrator 22.1.0, SVG Export Plug-In . SVG Version: 6.00 Build 0)  -->
<svg version="1.1" id="Layer_1" xmlns="http://www.w3.org/2000/svg" xmlns:xlink="http://www.w3.org/1999/xlink" x="0px" y="0px"
	 viewBox="0 0 496.4 548.9" style="enable-background:new 0 0 496.4 548.9;" xml:space="preserve">
<style type="text/css">
	.st0{fill:#3499FF;}
	.st1{fill:none;stroke:#0065FF;stroke-width:18.89;stroke-miterlimit:10;}
	.st2{fill:none;stroke:#E36D0E;stroke-width:18.89;stroke-miterlimit:10;}
	.st3{fill:#FFFFFF;stroke:#FF6600;stroke-width:18.89;stroke-miterlimit:10;}
	.st4{fill:none;stroke:#0033D8;stroke-width:18.89;stroke-miterlimit:10;}
	.st5{fill:none;stroke:#3A97F6;stroke-width:18.89;stroke-miterlimit:10;}
	.st6{fill:none;stroke:#F69746;stroke-width:18.89;stroke-miterlimit:10;}
	.st7{fill:#FF6600;stroke:#FFFFFF;stroke-width:3;stroke-miterlimit:10;}
	.st8{fill:#0032CB;stroke:#FFFFFF;stroke-width:3;stroke-miterlimit:10;}
	.st9{fill:#3499FF;stroke:#FFFFFF;stroke-width:3;stroke-miterlimit:10;}
	.st10{fill:#F79647;stroke:#FFFFFF;stroke-width:3;stroke-miterlimit:10;}
	.st11{fill:#0065FF;stroke:#FFFFFF;stroke-width:3;stroke-miterlimit:10;}
	.st12{fill:#E56C0B;stroke:#FFFFFF;stroke-width:3;stroke-miterlimit:10;}
	.st13{fill:none;}
	.st14{fill:#FFFFFF;}
	.st15{font-family:'MyriadPro-Regular';}
	.st16{font-size:45px;}
	.st17{font-size:21px;}
	.st18{font-size:25px;}
	.st19{font-size:20px;}
</style>
<circle class="st0" cx="248.2" cy="274.4" r="151.3"/>
<path class="st1" d="M418.9,373.4c-34.2,58.8-97.8,98.4-170.8,98.4"/>
<path class="st2" d="M77.4,175.6c34.1-58.9,97.9-98.5,170.8-98.5"/>
<path class="st3" d="M244.9,77.1c68-1.1,134.7,33.1,172.3,95.6"/>
<path class="st4" d="M251.5,471.7c-68.1,1.1-134.9-33.1-172.5-95.6"/>
<path class="st5" d="M419.3,176.1c33.8,59,36.2,133.9-0.3,197.1"/>
<path class="st6" d="M77.1,372.9c-33.9-59-36.3-134,0.2-197.2"/>
<a xlink:href="http://alexcatalano.com">
	<circle id="link_x5F_academics" class="st7" cx="248.2" cy="77.1" r="75.6"/></a>
<circle id="link_x5F_healthcare" class="st8" cx="248.2" cy="471.8" r="75.6"/>
<circle id="link_x5F_research" class="st9" cx="418.9" cy="175.5" r="75.6"/>
<circle id="link_x5F_communityService" class="st10" cx="77.5" cy="373.4" r="75.6"/>
<circle id="link_x5F_shadowing" class="st11" cx="419.2" cy="372.8" r="75.6"/>
<circle id="link_x5F_professionalCompetencies" class="st12" cx="77.1" cy="176.1" r="75.6"/>
<rect x="116.9" y="213.4" class="st13" width="274" height="166.4"/>
<text transform="matrix(1 0 0 1 209.6539 245.334)"><tspan x="0" y="0" class="st14 st15 st16">Your</tspan><tspan x="-64.1" y="54" class="st14 st15 st16">Application</tspan></text>
<rect x="2.3" y="149" class="st13" width="150.4" height="80.4"/>
<text transform="matrix(1 0 0 1 24.5445 163.8774)"><tspan x="0" y="0" class="st14 st15 st17">Professional</tspan><tspan x="-10" y="25.2" class="st14 st15 st17">Competencies</tspan></text>
<rect x="191.3" y="41.2" class="st13" width="114.5" height="22.5"/>
<a xlink:href="http://alexcatalano.com"><text transform="matrix(1 0 0 1 192.0294 58.9678)" class="st14 st15 st18">Academics</text></a>
<rect x="361.6" y="163.4" class="st13" width="122" height="45.3"/>
<text transform="matrix(1 0 0 1 375.7501 181.1343)" class="st14 st15 st18">Research</text>
<rect x="355.1" y="362.2" class="st13" width="127.5" height="28.2"/>
<text transform="matrix(1 0 0 1 359.7628 379.9673)" class="st14 st15 st18">Shadowing</text>
<rect x="186.3" y="448.6" class="st13" width="125.2" height="76.2"/>
<text transform="matrix(1 0 0 1 192.4131 466.3013)"><tspan x="0" y="0" class="st14 st15 st18">Healthcare</tspan><tspan x="-0.9" y="30" class="st14 st15 st18">Experience</tspan></text>
<rect x="12.6" y="338.6" class="st13" width="129.5" height="69.5"/>
<text transform="matrix(1 0 0 1 27.96 352.7515)"><tspan x="0" y="0" class="st14 st15 st19">Community </tspan><tspan x="19.5" y="24" class="st14 st15 st19">Service</tspan><tspan x="-4.3" y="48" class="st14 st15 st19">Non-medical</tspan></text>
<rect x="183.3" y="77.1" class="st13" width="132" height="49.3"/>
<text transform="matrix(1 0 0 1 210.5118 91.9604)"><tspan x="0" y="0" class="st14 st15 st17">Entrance </tspan><tspan x="10.8" y="25.2" class="st14 st15 st17">Exams</tspan></text>
</svg>
